<svg width="48" height="48" viewBox="0 0 48 48" fill="none" xmlns="http://www.w3.org/2000/svg">
<rect width="48" height="48" rx="24" fill="#F48024"/>
<path d="M31.9866 33.6313V26.1145H34.8054V36.4501H12.255V26.1145H15.0738V33.6313" fill="white"/>
<path d="M17.3288 26.2087L30.0698 28.0503L30.2296 25.814L17.7704 23.4181L17.3288 26.2087ZM19.0201 19.8194L30.2953 25.0812L31.3289 22.8261L20.0537 17.5643L19.0201 19.8194ZM22.2148 14.2757L31.7987 22.2624L33.396 20.3832L23.8121 12.3965L22.2148 14.2757ZM28.3222 8.4502L26.349 9.95354L33.7719 19.9134L35.745 18.41L28.3222 8.4502ZM16.953 31.7523H30.1074V28.9335H16.953V31.7523Z" fill="white"/>
</svg>
